<?xml version="1.0" encoding="UTF-8" standalone="no"?>
<!-- Created with Inkscape (http://www.inkscape.org/) -->

<svg
   width="99.664001mm"
   height="148.88mm"
   viewBox="0 0 99.664 148.88"
   version="1.1"
   id="svg34201"
   inkscape:version="1.2.2 (732a01da63, 2022-12-09)"
   sodipodi:docname="PoseBase.svg"
   inkscape:export-filename="PoseBase.png"
   inkscape:export-xdpi="96"
   inkscape:export-ydpi="96"
   xmlns:inkscape="http://www.inkscape.org/namespaces/inkscape"
   xmlns:sodipodi="http://sodipodi.sourceforge.net/DTD/sodipodi-0.dtd"
   xmlns="http://www.w3.org/2000/svg"
   xmlns:svg="http://www.w3.org/2000/svg">
  <sodipodi:namedview
     id="namedview34203"
     pagecolor="#ffffff"
     bordercolor="#000000"
     borderopacity="0.25"
     inkscape:showpageshadow="2"
     inkscape:pageopacity="0.0"
     inkscape:pagecheckerboard="0"
     inkscape:deskcolor="#d1d1d1"
     inkscape:document-units="mm"
     showgrid="false"
     inkscape:zoom="1.104894"
     inkscape:cx="141.64254"
     inkscape:cy="360.21554"
     inkscape:window-width="1920"
     inkscape:window-height="1057"
     inkscape:window-x="-8"
     inkscape:window-y="-8"
     inkscape:window-maximized="1"
     inkscape:current-layer="layer1" />
  <defs
     id="defs34198" />
  <g
     inkscape:label="Camada 1"
     inkscape:groupmode="layer"
     id="layer1">
    <g
       id="g28547-8"
       inkscape:label="Mimi (base)"
       transform="matrix(2.7909473,0,0,2.7909473,-139.26519,-342.05536)">
      <g
         id="g28455-6"
         inkscape:label="Corpo"
         style="opacity:1">
        <g
           id="g27310-3"
           inkscape:label="Pés">
          <path
             style="opacity:1;fill:#f1caa6;fill-opacity:1;stroke:none;stroke-width:2.487;stroke-linecap:round;stroke-linejoin:round;stroke-dasharray:none;stroke-opacity:1;paint-order:markers stroke fill"
             d="m 67.101684,173.06137 c -0.350792,2.40876 -2.057977,2.8414 -2.057977,2.8414 -1.520095,0.23386 -2.385381,-3.26235 -2.385381,-3.26235 z"
             id="path22653-9" />
          <path
             style="fill:#f1caa6;fill-opacity:1;stroke:none;stroke-width:2.487;stroke-linecap:round;stroke-linejoin:round;stroke-dasharray:none;stroke-opacity:1;paint-order:markers stroke fill"
             d="m 68.479163,173.06137 c 0.350792,2.40876 2.057977,2.8414 2.057977,2.8414 1.520095,0.23386 2.385381,-3.26235 2.385381,-3.26235 z"
             id="path22653-7-5" />
          <g
             id="g6350-1"
             inkscape:label="Sombra (pés)"
             transform="translate(49.629666,-301.21439)">
            <path
               style="fill:#edbc8f;fill-opacity:1;stroke:none;stroke-width:0.3;stroke-linecap:round;stroke-linejoin:round;stroke-dasharray:none;stroke-opacity:1;paint-order:markers stroke fill"
               d="m 13.686769,475.64633 c 0,0 1.670418,1.44537 3.300889,0.11615 0,0 0.305631,-0.38745 0.48436,-1.48672 l -4.443358,-0.42095 c 0,0 0.378838,1.28969 0.658109,1.79152 z"
               id="path67030-0-6" />
            <path
               style="fill:#edbc8f;fill-opacity:1;stroke:none;stroke-width:0.3;stroke-linecap:round;stroke-linejoin:round;stroke-dasharray:none;stroke-opacity:1;paint-order:markers stroke fill"
               d="m 22.634746,475.64633 c 0,0 -1.670418,1.44537 -3.300889,0.11615 0,0 -0.305631,-0.38745 -0.48436,-1.48672 l 4.443358,-0.42095 c 0,0 -0.378838,1.28969 -0.658109,1.79152 z"
               id="path67030-2-2-0" />
          </g>
        </g>
        <g
           id="g33053-7"
           inkscape:label="Saia">
          <path
             id="path22154-9"
             style="opacity:1;fill:#e099ff;fill-opacity:1;stroke:none;stroke-width:2.55463;stroke-linecap:round;stroke-linejoin:round;stroke-dasharray:none;stroke-opacity:1;paint-order:markers stroke fill"
             d="m 67.789144,164.50779 -5.439978,0.1912 -3.345532,6.27145 c 0,0 0.261367,1.32291 1.796789,1.30638 0,0 1.046792,0.94258 2.721798,0.79375 0,0 1.378663,0.47956 2.477885,0.28112 0,0 0.790819,0.23447 1.789038,0.35192 0.998219,-0.11745 1.789038,-0.35192 1.789038,-0.35192 1.099223,0.19844 2.477368,-0.28112 2.477368,-0.28112 1.675005,0.14883 2.721798,-0.79375 2.721798,-0.79375 1.535422,0.0165 1.797306,-1.30638 1.797306,-1.30638 l -3.345532,-6.27145 z"
             inkscape:label="Saia" />
          <g
             id="g33036-0"
             inkscape:label="Sombra">
            <path
               style="opacity:1;fill:#d987ff;fill-opacity:1;stroke:none;stroke-width:2.487;stroke-linecap:round;stroke-linejoin:round;stroke-dasharray:none;stroke-opacity:1;paint-order:markers stroke fill"
               d="m 60.800422,172.27682 1.991252,-5.00229 -2.626849,4.92054 c 0,0 0.246292,0.12619 0.635597,0.0817 z"
               id="path30699-1" />
            <path
               style="opacity:1;fill:#d987ff;fill-opacity:1;stroke:none;stroke-width:2.487;stroke-linecap:round;stroke-linejoin:round;stroke-dasharray:none;stroke-opacity:1;paint-order:markers stroke fill"
               d="m 63.52222,173.07057 0.94156,-5.32832 -1.592099,5.33337 c -0.002,0.0194 0.382774,0.016 0.650539,-0.005 z"
               id="path31349-6"
               sodipodi:nodetypes="ccccc" />
            <path
               style="opacity:1;fill:#d987ff;fill-opacity:1;stroke:none;stroke-width:2.487;stroke-linecap:round;stroke-linejoin:round;stroke-dasharray:none;stroke-opacity:1;paint-order:markers stroke fill"
               d="m 66.314609,173.43494 -0.213805,-5.40036 -0.370435,5.35243 0.269735,-0.0353 z"
               id="path31420-1" />
            <path
               style="opacity:1;fill:#d987ff;fill-opacity:1;stroke:none;stroke-width:2.487;stroke-linecap:round;stroke-linejoin:round;stroke-dasharray:none;stroke-opacity:1;paint-order:markers stroke fill"
               d="m 69.211153,173.43494 0.198782,-5.23665 0.44259,5.18911 -0.274344,-0.0357 z"
               id="path31422-2" />
            <path
               style="opacity:1;fill:#d987ff;fill-opacity:1;stroke:none;stroke-width:2.487;stroke-linecap:round;stroke-linejoin:round;stroke-dasharray:none;stroke-opacity:1;paint-order:markers stroke fill"
               d="m 72.055549,173.07057 -0.891657,-4.87228 1.511758,4.87948 z"
               id="path31424-7" />
            <path
               style="opacity:1;fill:#d987ff;fill-opacity:1;stroke:none;stroke-width:2.487;stroke-linecap:round;stroke-linejoin:round;stroke-dasharray:none;stroke-opacity:1;paint-order:markers stroke fill"
               d="m 74.777346,172.27682 -2.034894,-4.41763 2.743917,4.31263 z"
               id="path31426-8" />
          </g>
        </g>
        <g
           id="g28432-1"
           inkscape:label="Mãos"
           style="opacity:1">
          <path
             style="opacity:1;fill:#f1caa6;fill-opacity:1;stroke:none;stroke-width:2.487;stroke-linecap:round;stroke-linejoin:round;stroke-dasharray:none;stroke-opacity:1;paint-order:markers stroke fill"
             d="m 59.30126,162.73791 c 0,0 -1.081606,1.41486 0.01754,2.06967 0,0 0.800974,0.38587 1.017296,-0.36249 0,0 0.02339,0.22217 0.245554,0.19879 0.01754,-0.0234 0.309865,-0.10524 0.192935,-1.22193"
             id="path22010-4" />
          <path
             style="fill:#f1caa6;fill-opacity:1;stroke:none;stroke-width:2.487;stroke-linecap:round;stroke-linejoin:round;stroke-dasharray:none;stroke-opacity:1;paint-order:markers stroke fill"
             d="m 76.276734,162.73791 c 0,0 1.081606,1.41486 -0.01754,2.06967 0,0 -0.800974,0.38587 -1.017296,-0.36249 0,0 -0.02339,0.22217 -0.245554,0.19879 -0.01754,-0.0234 -0.309865,-0.10524 -0.192935,-1.22193"
             id="path22010-2-8" />
          <g
             id="g6650-9"
             inkscape:label="Sombra (mãos)">
            <path
               style="fill:#edbc8f;fill-opacity:1;stroke:none;stroke-width:0.4;stroke-linecap:round;stroke-linejoin:round;stroke-opacity:1;paint-order:markers stroke fill"
               d="m 59.129842,163.00293 c -0.01722,0.0327 0.580839,0.67471 1.321734,0.70385 0.231643,-0.0104 0.104059,0.595 0.130074,0.9371 0.142957,-0.0492 0.300067,-0.53027 0.19733,-1.17848 l -1.47772,-0.7275 c -0.08777,0.11264 -0.09785,0.13774 -0.171418,0.26503 z"
               id="path6409-18"
               sodipodi:nodetypes="cccccc" />
            <path
               style="fill:#edbc8f;fill-opacity:1;stroke:none;stroke-width:0.4;stroke-linecap:round;stroke-linejoin:round;stroke-opacity:1;paint-order:markers stroke fill"
               d="m 76.469799,163.04137 c 0.01888,0.0186 -0.583534,0.59125 -1.343381,0.66542 -0.231643,-0.0104 -0.104059,0.595 -0.130074,0.9371 -0.142957,-0.0492 -0.300067,-0.53027 -0.19733,-1.17848 l 1.47772,-0.7275 c 0.08777,0.11264 0.1195,0.17617 0.193065,0.30346 z"
               id="path6409-1-3"
               sodipodi:nodetypes="cccccc" />
          </g>
        </g>
        <ellipse
           style="opacity:1;fill:#dbb796;fill-opacity:1;stroke:none;stroke-width:2.487;stroke-linecap:round;stroke-linejoin:round;stroke-dasharray:none;stroke-opacity:1;paint-order:markers stroke fill"
           id="path28427-5"
           cx="67.766403"
           cy="154.45052"
           rx="2.8442707"
           ry="1.1575521"
           inkscape:label="Pescoço" />
        <g
           id="g27315-0"
           inkscape:label="Blusa"
           style="fill:#784e7e;fill-opacity:1">
          <g
             id="g28436-54"
             inkscape:label="Manga"
             style="opacity:1;fill:#784e7e;fill-opacity:1">
            <path
               style="opacity:1;fill:#32064f;fill-opacity:1;stroke:none;stroke-width:2.487;stroke-linecap:round;stroke-linejoin:round;stroke-dasharray:none;stroke-opacity:1;paint-order:markers stroke fill"
               d="m 61.411856,162.7613 -0.590501,0.71327 c -1.04068,-0.0351 -1.654564,-0.78928 -1.654564,-0.78928 l 0.187089,-0.78344 z"
               id="path22008-9"
               sodipodi:nodetypes="cccc" />
            <path
               style="fill:#32064f;fill-opacity:1;stroke:none;stroke-width:2.487;stroke-linecap:round;stroke-linejoin:round;stroke-dasharray:none;stroke-opacity:1;paint-order:markers stroke fill"
               d="m 74.166138,162.7613 0.590501,0.71327 c 1.04068,-0.0351 1.654564,-0.78928 1.654564,-0.78928 l -0.187089,-0.78344 z"
               id="path22008-0-2"
               sodipodi:nodetypes="cccc" />
          </g>
          <g
             id="g33062-5"
             inkscape:label="Blusa">
            <path
               style="opacity:1;fill:#6d0b9f;fill-opacity:1;stroke:none;stroke-width:2.487;stroke-linecap:round;stroke-linejoin:round;stroke-dasharray:none;stroke-opacity:1;paint-order:markers stroke fill"
               d="m 60.948191,157.22464 c 0,0 -1.924672,3.76516 -1.924672,4.56028 0,0 0.63438,1.02899 2.809286,1.23947 l 0.280633,-0.30402 c 0,0 0.795127,-0.0935 0.795127,0.39756 l -0.678197,1.5201 c 0,0 1.917659,1.61364 5.706205,1.21607 0,0 0.25885,-6.85154 -0.147576,-10.64066 0,0 -1.582994,-0.28064 -2.074102,-0.70159 z"
               id="path21304-1" />
            <path
               style="fill:#6d0b9f;fill-opacity:1;stroke:none;stroke-width:2.487;stroke-linecap:round;stroke-linejoin:round;stroke-dasharray:none;stroke-opacity:1;paint-order:markers stroke fill"
               d="m 74.629803,157.22464 c 0,0 1.924672,3.76516 1.924672,4.56028 0,0 -0.63438,1.02899 -2.809286,1.23947 l -0.280633,-0.30402 c 0,0 -0.795127,-0.0935 -0.795127,0.39756 l 0.678197,1.5201 c 0,0 -1.917659,1.61364 -5.706205,1.21607 0,0 -0.25885,-6.85154 0.147576,-10.64066 0,0 1.582994,-0.28064 2.074102,-0.70159 z"
               id="path21304-3-9" />
          </g>
          <g
             id="g29250-2"
             inkscape:label="Botões"
             transform="translate(-12.768761,115.59129)">
            <g
               id="g29229-50"
               inkscape:label="Maior"
               style="fill:#131313;fill-opacity:1">
              <circle
                 style="fill:#131313;fill-opacity:1;stroke:none;stroke-width:1.98168;stroke-linecap:round;stroke-linejoin:round;stroke-dasharray:none;stroke-opacity:1;paint-order:markers stroke fill"
                 id="path28631-4-5"
                 cx="80.512573"
                 cy="43.043018"
                 r="0.54678726" />
              <circle
                 style="fill:#131313;fill-opacity:1;stroke:none;stroke-width:1.98168;stroke-linecap:round;stroke-linejoin:round;stroke-dasharray:none;stroke-opacity:1;paint-order:markers stroke fill"
                 id="path28631-4-38-08"
                 cx="80.512573"
                 cy="41.190567"
                 r="0.54678726" />
              <circle
                 style="fill:#131313;fill-opacity:1;stroke:none;stroke-width:1.98168;stroke-linecap:round;stroke-linejoin:round;stroke-dasharray:none;stroke-opacity:1;paint-order:markers stroke fill"
                 id="path28631-4-3-1"
                 cx="80.512573"
                 cy="44.89547"
                 r="0.54678726" />
              <circle
                 style="fill:#131313;fill-opacity:1;stroke:none;stroke-width:1.98168;stroke-linecap:round;stroke-linejoin:round;stroke-dasharray:none;stroke-opacity:1;paint-order:markers stroke fill"
                 id="path28631-4-3-5-1"
                 cx="80.535164"
                 cy="46.747921"
                 r="0.54678726" />
              <circle
                 style="fill:#131313;fill-opacity:1;stroke:none;stroke-width:1.98168;stroke-linecap:round;stroke-linejoin:round;stroke-dasharray:none;stroke-opacity:1;paint-order:markers stroke fill"
                 id="path28631-4-3-5-2-7"
                 cx="80.535164"
                 cy="48.600372"
                 r="0.54678726" />
            </g>
            <g
               id="g29236-7"
               inkscape:label="Menor"
               style="fill:#232323;fill-opacity:1">
              <circle
                 style="fill:#232323;fill-opacity:1;stroke:none;stroke-width:1.31618;stroke-linecap:round;stroke-linejoin:round;stroke-dasharray:none;stroke-opacity:1;paint-order:markers stroke fill"
                 id="path28631-4-38-0-3-7-7"
                 cx="80.535164"
                 cy="46.747921"
                 r="0.36316121" />
              <circle
                 style="fill:#232323;fill-opacity:1;stroke:none;stroke-width:1.31618;stroke-linecap:round;stroke-linejoin:round;stroke-dasharray:none;stroke-opacity:1;paint-order:markers stroke fill"
                 id="path28631-4-38-0-8"
                 cx="80.512573"
                 cy="41.190567"
                 r="0.36316121" />
              <circle
                 style="fill:#232323;fill-opacity:1;stroke:none;stroke-width:1.31618;stroke-linecap:round;stroke-linejoin:round;stroke-dasharray:none;stroke-opacity:1;paint-order:markers stroke fill"
                 id="path28631-4-38-0-3-4"
                 cx="80.512573"
                 cy="43.043018"
                 r="0.36316121" />
              <circle
                 style="fill:#232323;fill-opacity:1;stroke:none;stroke-width:1.31618;stroke-linecap:round;stroke-linejoin:round;stroke-dasharray:none;stroke-opacity:1;paint-order:markers stroke fill"
                 id="path28631-4-38-0-3-0-30"
                 cx="80.512573"
                 cy="44.89547"
                 r="0.36316121" />
              <circle
                 style="fill:#232323;fill-opacity:1;stroke:none;stroke-width:1.31618;stroke-linecap:round;stroke-linejoin:round;stroke-dasharray:none;stroke-opacity:1;paint-order:markers stroke fill"
                 id="path28631-4-38-0-3-1-4"
                 cx="80.535164"
                 cy="48.600372"
                 r="0.36316121" />
            </g>
          </g>
          <g
             id="g33058-8"
             inkscape:label="Sombra"
             style="opacity:1">
            <path
               style="opacity:1;fill:#4b0876;fill-opacity:1;stroke:none;stroke-width:2.487;stroke-linecap:round;stroke-linejoin:round;stroke-dasharray:none;stroke-opacity:1;paint-order:markers stroke fill"
               d="m 67.788997,155.21344 0.647578,0.36204 0.04862,10.10268 -0.69605,0.19016 0.670854,0.0427 0.360061,-0.12543 -0.04154,-10.17757 -0.129635,-0.58945 z"
               id="path29319-4" />
            <path
               style="opacity:1;fill:#4b0876;fill-opacity:1;stroke:none;stroke-width:2.487;stroke-linecap:round;stroke-linejoin:round;stroke-dasharray:none;stroke-opacity:1;paint-order:markers stroke fill"
               d="m 67.788997,155.21344 -0.0087,0.56679 -0.21239,0.14811 z"
               id="path30367-7"
               sodipodi:nodetypes="cccc" />
          </g>
          <path
             id="path30200-2"
             style="opacity:1;fill:#32064f;fill-opacity:1;stroke:none;stroke-width:2.487;stroke-linecap:round;stroke-linejoin:round;stroke-dasharray:none;stroke-opacity:1;paint-order:markers stroke fill"
             d="m 66.03108,154.69485 -1.057299,0.23874 c 0,0 1.341514,0.82766 2.594156,0.99477 l 0.221176,-0.71468 c -0.566749,-0.12076 -1.126519,-0.22187 -1.758033,-0.51883 z m 1.758033,0.51883 0.195853,0.74 c 0.332919,-0.0205 1.119926,-0.15489 2.589506,-0.82423 l -1.203544,-0.34624 c -0.554331,0.21737 -1.068497,0.32569 -1.581815,0.43047 z"
             inkscape:label="Gola" />
        </g>
        <path
           style="fill:#4b0876;fill-opacity:0.5;stroke:none;stroke-width:0.3;stroke-linecap:round;stroke-linejoin:round;stroke-dasharray:none;stroke-opacity:1;paint-order:markers stroke fill"
           d="m 10.151492,460.87038 c 0,0 1.255775,0.83077 6.212765,-2.74602 0.727605,-0.90995 2.505451,-1.00973 3.21723,0 4.954985,3.64913 6.584055,2.74239 6.584055,2.74239 -0.428042,-0.92312 -0.873146,-2.18487 -1.476727,-2.6049 l -6.758295,-3.37497 -6.720739,3.76727 c 0,0 -0.728451,1.30628 -1.058289,2.21623 z"
           id="path66245-9-9"
           sodipodi:nodetypes="cccccccc"
           inkscape:label="Sombra (blusa)"
           transform="translate(49.629666,-301.21439)" />
      </g>
      <g
         id="g4700-8"
         inkscape:label="Estrela"
         transform="translate(0.18061866,0.29241389)">
        <path
           id="path16866-1-5-8-8"
           style="fill:#ffe169;fill-opacity:1;stroke:none;stroke-width:2.48698;stroke-linecap:round;stroke-linejoin:round;stroke-dasharray:none;stroke-opacity:1;paint-order:markers stroke fill"
           d="m 80.345336,6.67517 v 0.00134 c -6.299676,0.3557674 -4.744061,6.795641 -7.074952,9.32026 -1.818595,1.518321 -10.358418,1.721817 -10.781673,6.285862 -0.108316,4.939488 5.075603,3.860923 6.302912,8.753402 1.193927,3.08689 -2.786461,8.488038 1.263474,10.676252 3.709171,1.816003 6.573295,-2.772983 10.281459,-2.904194 0.0065,0.0013 0.01277,-4.56e-4 0.01795,-6.42e-4 v 0 c 3.708152,0.131212 6.572287,4.720198 10.28144,2.904188 4.049958,-2.188202 0.0695,-7.589355 1.26348,-10.676252 1.227316,-4.892465 6.41123,-3.813907 6.302908,-8.753389 C 97.779082,17.717944 89.239268,17.514448 87.420669,15.996134 85.089783,13.471501 86.645397,7.0316343 80.345715,6.6758658 Z"
           inkscape:label="Estrela"
           sodipodi:nodetypes="ccccccccccccccc"
           transform="translate(-12.768761,115.59129)" />
        <path
           id="path5373-7"
           style="fill:#ffcf40;fill-opacity:1;stroke:none;stroke-width:0.4;stroke-linecap:round;stroke-linejoin:round;stroke-opacity:1;paint-order:markers stroke fill"
           d="m 10.566797,449.94566 c 2.059738,5.31776 7.56994,5.30232 7.56994,5.30232 0,0 5.510483,0.0154 7.570221,-5.30232 -1.954021,3.56101 -5.271363,4.56147 -7.570081,4.56148 -2.298717,-10e-6 -5.616059,-1.00047 -7.57008,-4.56148 z"
           sodipodi:nodetypes="cccsc"
           inkscape:label="Sombra"
           transform="translate(49.449047,-301.5068)" />
      </g>
      <g
         id="g13571-8-9"
         inkscape:label="Rosto"
         transform="matrix(0.6342418,0,0,0.6342418,38.179284,74.1489)"
         style="opacity:1">
        <circle
           style="fill:#f1caa6;fill-opacity:1;stroke-width:0.487282;stroke-linecap:round;paint-order:markers stroke fill"
           id="path8954-3-7-36"
           cx="46.64959"
           cy="111.28532"
           r="13.5"
           inkscape:label="Cabeça" />
        <path
           id="path7948-1"
           style="fill:#edbc8f;fill-opacity:1;stroke:none;stroke-width:0.4;stroke-linecap:round;stroke-linejoin:round;stroke-opacity:1;paint-order:markers stroke fill"
           d="m 18.136877,442.27998 -0.28577,0.96428 c -0.615694,1.59753 -1.683358,2.18011 -2.782776,2.50631 -1.50785,0.44737 -3.690982,0.055 -5.4647828,-0.5116 l -0.029075,0.39171 c 3.8640838,0.86233 6.9166428,1.80824 8.2063538,-1.04438 1.61e-4,-3.6e-4 3.51e-4,-6.8e-4 5.17e-4,-10e-4 0.241005,-0.52051 0.477833,-0.4977 0.711067,0 1.39e-4,3.6e-4 3.79e-4,6.7e-4 5.17e-4,10e-4 1.099942,2.49687 3.778295,2.13494 8.177093,1.04286 l -3.35e-4,-0.39019 c -1.7738,0.56665 -3.956418,0.95897 -5.464266,0.5116 -1.297076,-0.38485 -2.549892,-1.12627 -3.068547,-3.47059 z"
           inkscape:label="Sombra (testa)"
           transform="matrix(1.5766858,0,0,1.5766858,18.053654,-591.82995)"
           sodipodi:nodetypes="ccsccscscccssc" />
        <g
           id="g11537-8-1-7"
           inkscape:label="Olhos"
           transform="matrix(-1.084914,0,0,1.084914,112.58102,-18.067842)">
          <g
             id="g11544-81-7-5"
             inkscape:label="Direito"
             transform="translate(0.17994214,1.2484459e-5)"
             style="opacity:1">
            <circle
               style="opacity:1;fill:#ffffff;fill-opacity:1;stroke-width:0.621855;stroke-linecap:round;paint-order:markers stroke fill"
               id="path9055-69-3-3-43"
               cx="41.25795"
               cy="117.66554"
               r="4.3396559"
               inkscape:label="Branco do olho"
               transform="matrix(0.92173206,0,0,0.92173206,17.772688,16.65371)" />
            <path
               style="fill:#dddddd;fill-opacity:1;stroke:none;stroke-width:0.4;stroke-linecap:round;stroke-linejoin:round;stroke-opacity:1;paint-order:markers stroke fill"
               d="m 19.384318,448.15189 c 2.626945,-1.80806 5.416321,0.95011 4.14961,3.61601 0.720963,-0.77759 1.062977,-2.44605 -0.144835,-3.71097 -1.385613,-1.35495 -3.187947,-0.82351 -4.004775,0.095 z"
               id="path7604-6-2"
               sodipodi:nodetypes="ccccc"
               inkscape:label="Sombra (branco do olho)"
               transform="matrix(-1.4532818,0,0,1.4532818,86.94896,-528.85493)" />
            <path
               id="path9646-2-0-9"
               style="fill:#000000;fill-opacity:1;stroke:#cc5eff;stroke-width:1.25646;stroke-linecap:round;stroke-linejoin:round;stroke-dasharray:none;stroke-opacity:1;paint-order:markers stroke fill"
               d="m 56.673129,123.28582 c -0.204454,1.09294 -0.689518,1.89097 -1.459275,2.38979 0.871827,0.28509 1.545075,0.93231 2.022584,1.93644 0.204455,-1.09293 0.689517,-1.89097 1.459274,-2.3898 -0.871828,-0.28509 -1.545073,-0.93229 -2.022583,-1.93643 z"
               inkscape:label="Pupila" />
            <g
               id="g33081-8-0"
               inkscape:label="Cílios">
              <path
                 id="path33137-7-8"
                 style="opacity:1;fill:#131313;fill-opacity:1;stroke:none;stroke-width:1.0119;stroke-linecap:round;stroke-linejoin:round;stroke-dasharray:none;stroke-opacity:1;paint-order:markers stroke fill"
                 d="m 55.494901,120.49188 a 4.0420218,3.7249806 0 0 0 -4.041905,3.72498 4.0420218,3.7249806 0 0 0 0.421313,1.64996 4,4 0 0 1 -0.07285,-0.75701 4,4 0 0 1 3.999848,-4.0006 4,4 0 0 1 3.657391,2.38143 4.0420218,3.7249806 0 0 0 -3.9638,-2.99876 z"
                 transform="translate(-1.4848787e-6)" />
              <path
                 style="opacity:1;fill:none;fill-opacity:1;stroke:#131313;stroke-width:0.366;stroke-linecap:round;stroke-linejoin:round;stroke-dasharray:none;stroke-opacity:1;paint-order:markers stroke fill"
                 d="m 61.587423,146.94291 c 0,0 -1.104466,0.14421 -1.741911,-0.29615"
                 id="path33859-0-4"
                 transform="matrix(1.4532818,0,0,1.4532818,-37.450081,-90.680577)" />
              <path
                 style="fill:none;fill-opacity:0.356522;stroke:#131313;stroke-width:0.531901;stroke-linecap:round;stroke-dasharray:none;stroke-opacity:1;paint-order:markers stroke fill"
                 d="m 52.981148,121.83768 c 0,0 -1.238796,0.0611 -2.314558,-0.98385"
                 id="path11524-4-2-8"
                 sodipodi:nodetypes="cc" />
              <path
                 style="opacity:1;fill:none;fill-opacity:0.356522;stroke:#131313;stroke-width:0.532;stroke-linecap:round;stroke-opacity:1;paint-order:markers stroke fill"
                 d="m 54.898571,120.86044 c 0,0 -1.308871,0.75101 -2.0804,-0.9044"
                 id="path11522-5-6-6"
                 sodipodi:nodetypes="cc"
                 transform="translate(-1.4848787e-6)" />
            </g>
          </g>
          <g
             id="g11544-81-8"
             inkscape:label="Esquerdo"
             transform="matrix(-1,0,0,1,121.54222,-5.5687977e-8)">
            <circle
               style="opacity:1;fill:#ffffff;fill-opacity:1;stroke-width:0.621855;stroke-linecap:round;paint-order:markers stroke fill"
               id="path9055-69-3-6"
               cx="41.25795"
               cy="117.66554"
               r="4.3396559"
               inkscape:label="Branco do olho"
               transform="matrix(0.92173206,0,0,0.92173206,17.772688,16.65371)" />
            <path
               style="fill:#dddddd;fill-opacity:1;stroke:none;stroke-width:0.4;stroke-linecap:round;stroke-linejoin:round;stroke-opacity:1;paint-order:markers stroke fill"
               d="m 16.764228,448.15193 c -2.626945,-1.80806 -5.416321,0.95011 -4.14961,3.61601 -0.720963,-0.77759 -1.062977,-2.44605 0.144835,-3.71097 1.385613,-1.35495 3.187947,-0.82351 4.004775,0.095 z"
               id="path7604-1"
               sodipodi:nodetypes="ccccc"
               inkscape:label="Sombra (branco do olho)"
               transform="matrix(1.4532818,0,0,1.4532818,34.413318,-528.85492)" />
            <path
               id="path9646-2-07"
               style="fill:#000000;fill-opacity:1;stroke:#cc5eff;stroke-width:1.25646;stroke-linecap:round;stroke-linejoin:round;stroke-dasharray:none;stroke-opacity:1;paint-order:markers stroke fill"
               d="m 56.673129,123.28582 c -0.204454,1.09294 -0.689518,1.89097 -1.459275,2.38979 0.871827,0.28509 1.545075,0.93231 2.022584,1.93644 0.204455,-1.09293 0.689517,-1.89097 1.459274,-2.3898 -0.871828,-0.28509 -1.545073,-0.93229 -2.022583,-1.93643 z"
               inkscape:label="Pupila" />
            <g
               id="g33081-6"
               inkscape:label="Cílios">
              <path
                 id="path33137-0"
                 style="opacity:1;fill:#131313;fill-opacity:1;stroke:none;stroke-width:1.0119;stroke-linecap:round;stroke-linejoin:round;stroke-dasharray:none;stroke-opacity:1;paint-order:markers stroke fill"
                 d="m 55.494901,120.49188 a 4.0420218,3.7249806 0 0 0 -4.041905,3.72498 4.0420218,3.7249806 0 0 0 0.421313,1.64996 4,4 0 0 1 -0.07285,-0.75701 4,4 0 0 1 3.999848,-4.0006 4,4 0 0 1 3.657391,2.38143 4.0420218,3.7249806 0 0 0 -3.9638,-2.99876 z"
                 transform="translate(-1.4848787e-6)" />
              <path
                 style="opacity:1;fill:none;fill-opacity:1;stroke:#131313;stroke-width:0.366;stroke-linecap:round;stroke-linejoin:round;stroke-dasharray:none;stroke-opacity:1;paint-order:markers stroke fill"
                 d="m 61.587423,146.94291 c 0,0 -1.104466,0.14421 -1.741911,-0.29615"
                 id="path33859-00"
                 transform="matrix(1.4532818,0,0,1.4532818,-37.450081,-90.680577)" />
              <path
                 style="fill:none;fill-opacity:0.356522;stroke:#131313;stroke-width:0.531901;stroke-linecap:round;stroke-dasharray:none;stroke-opacity:1;paint-order:markers stroke fill"
                 d="m 52.981148,121.83768 c 0,0 -1.238796,0.0611 -2.314558,-0.98385"
                 id="path11524-4-3"
                 sodipodi:nodetypes="cc" />
              <path
                 style="opacity:1;fill:none;fill-opacity:0.356522;stroke:#131313;stroke-width:0.532;stroke-linecap:round;stroke-opacity:1;paint-order:markers stroke fill"
                 d="m 54.898571,120.86044 c 0,0 -1.308871,0.75101 -2.0804,-0.9044"
                 id="path11522-5-3"
                 sodipodi:nodetypes="cc"
                 transform="translate(-1.4848787e-6)" />
            </g>
          </g>
        </g>
        <g
           id="g13543-0-1"
           inkscape:label="Pintas">
          <circle
             style="fill:#d0a175;fill-opacity:1;stroke-width:0.0459124;stroke-linecap:round;paint-order:markers stroke fill"
             id="path9055-6-2-0-7"
             cx="-46.64959"
             cy="122.30009"
             r="0.32040244"
             transform="scale(-1,1)" />
          <circle
             style="fill:#d0a175;fill-opacity:1;stroke-width:0.0459124;stroke-linecap:round;paint-order:markers stroke fill"
             id="path9055-6-2-3-21-6"
             cx="-47.707924"
             cy="123.35841"
             r="0.32040244"
             transform="scale(-1,1)" />
          <circle
             style="fill:#d0a175;fill-opacity:1;stroke-width:0.0459124;stroke-linecap:round;paint-order:markers stroke fill"
             id="path9055-6-2-3-2-4-6"
             cx="-45.591255"
             cy="123.35841"
             r="0.32040244"
             transform="scale(-1,1)" />
          <circle
             style="fill:#d0a175;fill-opacity:1;stroke-width:0.0459124;stroke-linecap:round;paint-order:markers stroke fill"
             id="path9055-6-2-2-1-0"
             cx="-118.20863"
             cy="29.511242"
             r="0.32040244"
             transform="matrix(-0.5186332,-0.85499685,-0.85499685,0.5186332,0,0)" />
          <circle
             style="fill:#d0a175;fill-opacity:1;stroke-width:0.0459124;stroke-linecap:round;paint-order:markers stroke fill"
             id="path9055-6-2-3-6-6-7"
             cx="-119.26696"
             cy="30.569561"
             r="0.32040244"
             transform="matrix(-0.5186332,-0.85499685,-0.85499685,0.5186332,0,0)" />
          <circle
             style="fill:#d0a175;fill-opacity:1;stroke-width:0.0459124;stroke-linecap:round;paint-order:markers stroke fill"
             id="path9055-6-2-3-2-8-5-9"
             cx="-117.1503"
             cy="30.569561"
             r="0.32040244"
             transform="matrix(-0.5186332,-0.85499685,-0.85499685,0.5186332,0,0)" />
          <circle
             style="fill:#d0a175;fill-opacity:1;stroke-width:0.0459124;stroke-linecap:round;paint-order:markers stroke fill"
             id="path9055-6-2-2-7-0-4"
             cx="-69.903709"
             cy="109.16066"
             r="0.32040244"
             transform="rotate(-58.759386)" />
          <circle
             style="fill:#d0a175;fill-opacity:1;stroke-width:0.0459124;stroke-linecap:round;paint-order:markers stroke fill"
             id="path9055-6-2-3-6-0-3-7"
             cx="-70.962044"
             cy="110.21899"
             r="0.32040244"
             transform="rotate(-58.759386)" />
          <circle
             style="fill:#d0a175;fill-opacity:1;stroke-width:0.0459124;stroke-linecap:round;paint-order:markers stroke fill"
             id="path9055-6-2-3-2-8-1-9-3"
             cx="-68.845383"
             cy="110.21899"
             r="0.32040244"
             transform="rotate(-58.759386)" />
        </g>
        <g
           id="g11548-5-2-6"
           inkscape:label="Cabelo"
           style="opacity:1;fill:#000000;fill-opacity:1"
           transform="matrix(-1,0,0,1.0093337,116.7791,-3.6475688)">
          <path
             style="fill:#131313;fill-opacity:1;stroke-width:0.532;stroke-linecap:round;paint-order:markers stroke fill"
             d="m 70.129508,100.49491 c 1.402936,8.59365 -0.569317,16.26949 -13.454305,12.27526 0.974571,-9.25788 8.918792,-12.33593 13.454305,-12.27526 z"
             id="path9137-6-3-9"
             sodipodi:nodetypes="ccc"
             transform="matrix(-1,0,0,0.99999999,140.25873,-0.00312831)" />
          <path
             style="fill:#131313;fill-opacity:1;stroke-width:0.532;stroke-linecap:round;paint-order:markers stroke fill"
             d="m 70.129508,100.49491 c 1.402936,8.59365 -0.569317,16.26949 -13.454305,12.27526 0.974571,-9.25788 8.918792,-12.33593 13.454305,-12.27526 z"
             id="path9137-6-0-4-7"
             sodipodi:nodetypes="ccc" />
        </g>
      </g>
    </g>
  </g>
</svg>
